<svg xmlns="http://www.w3.org/2000/svg" width="500" height="500" viewBox="0 0 500 500">
<g>
<path d="M 134.81 244.75 L 143.78 227.50 L 150.36 227.20 L 156.94 226.91 L 165.47 243.94 C170.16,253.31 174.00,261.21 174.00,261.49 C174.00,261.77 170.95,262.00 167.23,262.00 L 160.45 262.00 L 155.73 252.50 C153.14,247.27 150.67,243.00 150.26,243.00 C149.84,243.00 147.25,247.27 144.50,252.49 L 139.50 261.98 L 132.67 261.99 L 125.84 262.00 ZM 279.24 241.97 C275.71,240.55 274.36,236.63 276.34,233.60 C277.64,231.63 278.96,231.05 282.73,230.81 C286.25,230.58 287.57,230.06 287.80,228.80 C288.07,227.41 287.18,227.05 282.82,226.80 C278.71,226.57 277.44,226.11 277.19,224.75 C276.89,223.22 277.73,223.00 283.93,223.00 L 291.00 223.00 L 291.00 231.00 C291.00,237.44 291.29,239.00 292.50,239.00 C294.52,239.00 294.42,241.90 292.37,242.69 C291.47,243.03 289.88,242.78 288.84,242.13 C287.51,241.30 286.39,241.26 285.04,241.98 C282.80,243.18 282.25,243.17 279.24,241.97 ZM 248.67 242.33 C248.30,241.97 248.00,237.47 248.00,232.33 L 248.00 223.00 L 274.07 223.00 L 273.79 232.67 C273.59,239.30 273.11,242.47 272.25,242.75 C271.32,243.06 271.00,241.09 271.00,235.03 L 271.00 226.89 L 262.50 227.50 L 262.38 235.00 C262.28,240.64 261.91,242.50 260.88,242.50 C259.85,242.50 259.43,240.52 259.21,234.75 L 258.92 227.00 L 251.00 227.00 L 251.00 235.00 C251.00,242.35 250.44,244.11 248.67,242.33 ZM 318.25 250.34 C317.56,250.06 317.00,249.20 317.00,248.42 C317.00,247.34 318.56,247.00 323.50,247.00 L 330.00 247.00 L 330.00 243.89 C330.00,241.30 329.71,240.92 328.25,241.58 C324.72,243.19 319.59,242.22 317.25,239.50 C315.38,237.33 315.00,235.71 315.00,229.94 C315.00,223.67 315.19,223.00 317.00,223.00 C318.81,223.00 319.00,223.67 319.00,229.96 C319.00,237.53 320.04,239.00 325.40,239.00 C328.80,239.00 330.00,236.40 330.00,229.07 C330.00,224.34 330.33,223.00 331.50,223.00 C333.80,223.00 333.72,249.51 331.42,250.39 C329.56,251.11 320.06,251.07 318.25,250.34 ZM 295.69 242.35 C295.31,241.98 295.00,237.47 295.00,232.33 C295.00,223.80 295.16,223.00 296.92,223.00 C297.97,223.00 299.00,223.51 299.21,224.14 C299.49,224.98 300.22,224.95 301.95,224.03 C303.77,223.06 305.16,223.03 308.12,223.92 C311.40,224.90 312.09,225.63 313.02,229.08 C314.53,234.70 313.94,242.50 312.00,242.50 C310.85,242.50 310.43,240.98 310.20,236.04 C309.84,228.48 308.91,227.00 304.50,227.00 C300.10,227.00 299.16,228.48 298.80,235.96 C298.52,241.82 297.42,244.09 295.69,242.35 ZM 176.00 270.50 L 176.00 265.00 L 187.43 265.00 L 182.00 270.50 C179.01,273.52 176.44,276.00 176.28,276.00 C176.13,276.00 176.00,273.52 176.00,270.50 ZM 287.23 237.57 C289.05,234.93 287.98,233.89 283.76,234.19 C280.66,234.42 279.43,234.97 279.18,236.25 C278.58,239.43 285.22,240.52 287.23,237.57 Z" fill="rgba(0,0,0,1)"/>
<path d="M 167.50 271.00 L 161.56 265.00 L 167.78 265.00 L 174.00 265.00 L 174.00 271.00 C174.00,274.30 173.87,277.00 173.72,277.00 C173.56,277.00 170.77,274.30 167.50,271.00 ZM 247.21 262.25 L 247.50 252.50 L 260.50 252.50 L 273.50 252.50 L 273.79 262.25 C274.06,271.48 273.96,272.00 272.04,272.00 C270.16,272.00 270.00,271.38 270.00,264.00 L 270.00 256.00 L 266.54 256.00 L 263.08 256.00 L 262.79 263.74 C262.55,270.10 262.20,271.54 260.79,271.80 C259.32,272.09 259.05,271.05 258.79,264.32 L 258.50 256.50 L 255.00 256.50 L 251.50 256.50 L 251.21 264.25 C250.94,271.23 250.72,272.00 248.92,272.00 C247.05,272.00 246.94,271.42 247.21,262.25 ZM 277.00 270.00 C272.66,265.66 275.42,260.60 282.78,259.42 C288.98,258.43 288.43,256.00 282.00,256.00 C277.67,256.00 277.00,255.73 277.00,254.00 C277.00,252.19 277.67,252.00 284.00,252.00 L 291.00 252.00 L 291.00 259.89 C291.00,265.99 291.34,267.92 292.50,268.36 C295.28,269.43 294.22,272.00 291.00,272.00 C289.35,272.00 288.00,271.53 288.00,270.96 C288.00,270.25 287.40,270.25 286.07,270.96 C283.03,272.59 279.18,272.18 277.00,270.00 ZM 285.07 267.96 C287.93,266.43 287.60,263.00 284.58,263.00 C279.50,263.00 277.54,265.14 280.20,267.80 C281.67,269.27 282.57,269.30 285.07,267.96 ZM 295.00 262.00 L 295.00 252.00 L 301.00 252.00 C306.33,252.00 307.00,252.22 307.00,254.00 C307.00,255.67 306.33,256.00 303.00,256.00 L 299.00 256.00 L 299.00 264.00 C299.00,271.33 298.83,272.00 297.00,272.00 C295.13,272.00 295.00,271.33 295.00,262.00 ZM 309.22 258.33 C309.42,248.49 309.85,244.55 310.75,244.25 C311.68,243.94 312.00,245.80 312.00,251.42 C312.00,255.59 312.32,259.00 312.71,259.00 C313.10,259.00 315.07,257.38 317.10,255.41 C319.24,253.31 321.53,251.96 322.58,252.16 C324.12,252.46 323.92,253.03 321.08,256.25 L 317.79 260.00 L 321.40 260.00 L 325.00 260.00 L 325.00 266.07 C325.00,271.32 324.76,272.10 323.25,271.82 C322.02,271.58 321.41,270.35 321.19,267.69 L 320.87 263.89 L 316.69 264.20 C312.63,264.49 312.49,264.62 312.19,268.25 C311.98,270.74 311.39,272.00 310.41,272.00 C309.18,272.00 308.99,269.81 309.22,258.33 ZM 328.45 269.55 C325.76,266.85 325.08,260.58 327.08,256.85 C328.50,254.19 333.79,252.05 337.27,252.71 C340.78,253.38 344.00,257.41 344.00,261.13 L 344.00 264.00 L 337.00 264.00 C331.40,264.00 330.00,264.30 330.00,265.52 C330.00,266.36 331.17,267.58 332.60,268.23 C334.75,269.21 335.73,269.12 338.19,267.71 C341.82,265.62 343.00,265.56 343.00,267.44 C343.00,272.09 332.51,273.60 328.45,269.55 ZM 339.82 259.36 C339.01,255.25 330.98,255.17 330.19,259.27 C329.91,260.73 330.66,261.00 335.00,261.00 C339.24,261.00 340.09,260.71 339.82,259.36 ZM 347.00 264.00 C347.00,256.67 346.83,256.00 345.00,256.00 C343.84,256.00 343.00,255.33 343.00,254.41 C343.00,253.53 343.90,252.58 345.00,252.29 C346.50,251.90 347.00,250.93 347.00,248.38 C347.00,246.04 347.46,245.00 348.50,245.00 C349.55,245.00 350.00,246.06 350.00,248.50 C350.00,251.83 350.17,252.00 353.50,252.00 C356.30,252.00 357.00,252.39 357.00,253.94 C357.00,255.39 356.19,255.95 353.75,256.19 C350.54,256.50 350.50,256.57 350.20,262.19 L 349.90 267.88 L 354.19 268.19 C357.33,268.42 358.57,268.97 358.81,270.25 C359.10,271.76 358.32,272.00 353.07,272.00 L 347.00 272.00 L 347.00 264.00 ZM 361.20 269.25 L 358.50 266.50 L 360.83 266.17 C362.17,265.98 363.68,266.55 364.39,267.51 C366.05,269.79 370.50,269.13 370.50,266.60 C370.50,265.21 369.26,264.35 365.76,263.33 C362.19,262.29 360.88,261.36 360.43,259.57 C359.00,253.86 365.84,250.00 370.81,253.71 C372.22,254.76 373.55,256.16 373.77,256.81 C374.25,258.25 370.38,258.42 369.50,257.00 C369.16,256.45 367.75,256.00 366.37,256.00 C362.43,256.00 363.83,259.07 368.50,260.67 C374.92,262.87 376.61,266.39 373.00,270.00 C370.00,273.00 364.56,272.66 361.20,269.25 ZM 175.55 262.00 C175.41,261.73 179.35,253.74 184.31,244.25 L 193.33 227.00 L 200.16 227.00 L 206.99 227.00 L 215.36 244.25 C219.96,253.74 223.44,261.83 223.08,262.23 C222.73,262.64 219.52,262.68 215.97,262.34 L 209.50 261.71 L 205.08 252.35 C202.64,247.21 200.32,243.00 199.91,243.00 C199.50,243.00 197.00,247.24 194.36,252.43 L 189.55 261.85 L 182.68 262.18 C178.90,262.35 175.69,262.27 175.55,262.00 Z" fill="rgba(254,125,49,1)"/>
</g>
</svg>